<svg width="22" height="18" viewBox="0 0 22 18" fill="none" xmlns="http://www.w3.org/2000/svg">
<path d="M8.1745 13.8948C3.04986 14.9678 3.04986 12.1065 1 11.7489M15.349 16.0408V13.2725C15.3874 12.9314 15.3214 12.5885 15.1553 12.2666C14.9892 11.9447 14.7268 11.6512 14.3856 11.4055C17.6038 11.1552 20.9861 10.304 20.9861 6.39834C20.9858 5.39963 20.4354 4.43923 19.4487 3.7159C19.9159 2.84215 19.8829 1.87636 19.3565 1.01917C19.3565 1.01917 18.1471 0.768805 15.349 2.07783C12.9999 1.63349 10.5236 1.63349 8.1745 2.07783C5.37645 0.768805 4.16703 1.01917 4.16703 1.01917C3.6406 1.87636 3.60757 2.84215 4.07479 3.7159C3.08074 4.44459 2.52973 5.41368 2.53739 6.41979C2.53739 10.2968 5.91966 11.148 9.13793 11.427C8.80073 11.6702 8.54067 11.9602 8.37468 12.2782C8.20869 12.5961 8.14048 12.9349 8.1745 13.2725V16.0408" stroke="#FF004E" stroke-width="2" stroke-linecap="round" stroke-linejoin="round"/>
</svg>
