<svg width="24" height="24" viewBox="0 0 24 24" fill="none" xmlns="http://www.w3.org/2000/svg">
<path d="M16 7.99915C17.5913 7.99915 19.1174 8.63129 20.2426 9.75651C21.3679 10.8817 22 12.4078 22 13.9991V20.9991H18V13.9991C18 13.4687 17.7893 12.96 17.4142 12.5849C17.0391 12.2099 16.5304 11.9991 16 11.9991C15.4696 11.9991 14.9609 12.2099 14.5858 12.5849C14.2107 12.96 14 13.4687 14 13.9991V20.9991H10V13.9991C10 12.4078 10.6321 10.8817 11.7574 9.75651C12.8826 8.63129 14.4087 7.99915 16 7.99915Z" stroke="#FF014F" stroke-width="2" stroke-linecap="round" stroke-linejoin="round"/>
<path d="M6 8.99915H2V20.9991H6V8.99915Z" stroke="#FF014F" stroke-width="2" stroke-linecap="round" stroke-linejoin="round"/>
<path d="M4 5.99915C5.10457 5.99915 6 5.10371 6 3.99915C6 2.89458 5.10457 1.99915 4 1.99915C2.89543 1.99915 2 2.89458 2 3.99915C2 5.10371 2.89543 5.99915 4 5.99915Z" stroke="#FF014F" stroke-width="2" stroke-linecap="round" stroke-linejoin="round"/>
</svg>
