<svg width="24" height="24" viewBox="0 0 24 24" fill="none" xmlns="http://www.w3.org/2000/svg">
<path d="M23 2.99913C22.0424 3.67461 20.9821 4.19124 19.86 4.52913C19.2577 3.83664 18.4573 3.34582 17.567 3.12306C16.6767 2.90029 15.7395 2.95633 14.8821 3.28358C14.0247 3.61084 13.2884 4.19353 12.773 4.95285C12.2575 5.71216 11.9877 6.61147 12 7.52913V8.52913C10.2426 8.5747 8.50127 8.18494 6.93101 7.39458C5.36074 6.60421 4.01032 5.43777 3 3.99913C3 3.99913 -1 12.9991 8 16.9991C5.94053 18.3971 3.48716 19.0981 1 18.9991C10 23.9991 21 18.9991 21 7.49913C20.9991 7.22058 20.9723 6.94272 20.92 6.66913C21.9406 5.66262 22.6608 4.39184 23 2.99913Z" stroke="#FF014F" stroke-width="2" stroke-linecap="round" stroke-linejoin="round"/>
</svg>
