<svg width="54" height="43" viewBox="0 0 54 43" fill="none" xmlns="http://www.w3.org/2000/svg">
<path d="M19 14.4626C19.4908 14.4626 19.8887 14.1476 19.8887 13.7591C19.8887 13.3705 19.4908 13.0555 19 13.0555C18.5092 13.0555 18.1113 13.3705 18.1113 13.7591C18.1113 14.1476 18.5092 14.4626 19 14.4626Z" fill="#FF014F"/>
<path d="M19 17.2778C19.4908 17.2778 19.8887 16.9628 19.8887 16.5743C19.8887 16.1857 19.4908 15.8707 19 15.8707C18.5092 15.8707 18.1113 16.1857 18.1113 16.5743C18.1113 16.9628 18.5092 17.2778 19 17.2778Z" fill="#FF014F"/>
<path d="M19 20.0924C19.4908 20.0924 19.8887 19.7774 19.8887 19.3888C19.8887 19.0003 19.4908 18.6853 19 18.6853C18.5092 18.6853 18.1113 19.0003 18.1113 19.3888C18.1113 19.7774 18.5092 20.0924 19 20.0924Z" fill="#FF014F"/>
<path d="M19 22.9071C19.4908 22.9071 19.8887 22.5921 19.8887 22.2035C19.8887 21.815 19.4908 21.5 19 21.5C18.5092 21.5 18.1113 21.815 18.1113 22.2035C18.1113 22.5921 18.5092 22.9071 19 22.9071Z" fill="#FF014F"/>
<path d="M19 25.7222C19.4908 25.7222 19.8887 25.4073 19.8887 25.0187C19.8887 24.6302 19.4908 24.3152 19 24.3152C18.5092 24.3152 18.1113 24.6302 18.1113 25.0187C18.1113 25.4073 18.5092 25.7222 19 25.7222Z" fill="#FF014F"/>
<path d="M26.1113 13.7604V17.9816H22.5567V10.9463H15.4473V15.1674H10.1153V26.4239H7.44934C6.95879 26.4239 6.56067 26.7384 6.56067 27.1274C6.56067 27.5165 6.95879 27.8309 7.44934 27.8309H10.1153H15.4473H17.2247H20.7793H22.5567H26.1113H27.8887H31.4433H33.2207H36.7753H38.5527H43.8847H46.5507C47.0412 27.8309 47.4393 27.5165 47.4393 27.1274C47.4393 26.7384 47.0412 26.4239 46.5507 26.4239H43.8847V10.9463H38.5527V8.83569H31.4433V13.7604H26.1113ZM11.8927 26.4239V16.5745H15.4473V26.4239H11.8927ZM18.1133 26.4239C18.1133 26.0355 17.7152 25.7204 17.2247 25.7204V24.3133C17.7152 24.3133 18.1133 23.9981 18.1133 23.6098C18.1133 23.2214 17.7152 22.9062 17.2247 22.9062V21.4992C17.7152 21.4992 18.1133 21.184 18.1133 20.7957C18.1133 20.4073 17.7152 20.0921 17.2247 20.0921V18.6851C17.7152 18.6851 18.1133 18.3699 18.1133 17.9816C18.1133 17.5932 17.7152 17.278 17.2247 17.278V15.871C17.7152 15.871 18.1133 15.5558 18.1133 15.1674C18.1133 14.7791 17.7152 14.4639 17.2247 14.4639V13.0569C17.7152 13.0569 18.1133 12.7417 18.1133 12.3533H19.8907C19.8907 12.7417 20.2888 13.0569 20.7793 13.0569V14.4639C20.2888 14.4639 19.8907 14.7791 19.8907 15.1674C19.8907 15.5558 20.2888 15.871 20.7793 15.871V17.278C20.2888 17.278 19.8907 17.5932 19.8907 17.9816C19.8907 18.3699 20.2888 18.6851 20.7793 18.6851V20.0921C20.2888 20.0921 19.8907 20.4073 19.8907 20.7957C19.8907 21.184 20.2888 21.4992 20.7793 21.4992V22.9062C20.2888 22.9062 19.8907 23.2214 19.8907 23.6098C19.8907 23.9981 20.2888 24.3133 20.7793 24.3133V25.7204C20.2888 25.7204 19.8907 26.0355 19.8907 26.4239H18.1133ZM22.5567 26.4239V19.3886H26.1113V26.4239H22.5567ZM27.8887 26.4239V17.9816V15.1674H31.4433V26.4239H27.8887ZM42.1073 12.3533V26.4239H38.5527V12.3533H42.1073ZM33.2207 10.2427H36.7753V10.9463V26.4239H33.2207V13.7604V10.2427Z" fill="#FF014F"/>
<path d="M53.66 3.20828H27.8887V1.09769C27.8887 0.708642 27.4905 0.394165 27 0.394165C26.5095 0.394165 26.1113 0.708642 26.1113 1.09769V3.20828H0.339996V32.7564H24.8548L13.9304 41.4049C13.5829 41.68 13.5829 42.1246 13.9304 42.3997C14.1037 42.5369 14.3312 42.6058 14.5587 42.6058C14.7862 42.6058 15.0137 42.5369 15.187 42.3997L26.1113 33.7512V40.4953C26.1113 40.8843 26.5095 41.1988 27 41.1988C27.4905 41.1988 27.8887 40.8843 27.8887 40.4953V33.7512L38.813 42.3997C38.9863 42.5369 39.2138 42.6058 39.4413 42.6058C39.6688 42.6058 39.8963 42.5369 40.0696 42.3997C40.4171 42.1246 40.4171 41.68 40.0696 41.4049L29.1452 32.7564H53.66V3.20828ZM51.8827 31.3494H2.11733V4.61533H51.8827V31.3494Z" fill="#FF014F"/>
</svg>
