<svg width="108" height="88" viewBox="0 0 108 88" fill="none" xmlns="http://www.w3.org/2000/svg">
<rect width="108" height="88" fill="white"/>
<path d="M34.4962 69.1831C30.9272 66.8937 27.1219 64.7006 24.5147 61.6137C19.0387 56.1687 14.82 49.8575 11.9428 43.23C10.1962 38.9194 9.60562 34.2994 7.35281 30.1537C5.00719 27.1425 7.75781 23.8562 11.7994 22.9006C13.5966 22.6187 16.7691 21.23 12.9469 22.2269C9.52125 24.2756 9.19219 20.3637 12.7022 20.1162C15.0984 19.855 15.9844 18.26 15.1659 16.8162C12.5925 15.4481 21.4097 13.9425 16.9716 11.9006C12.3478 7.83748 23.4347 7.05373 20.7009 11.6737C20.0512 15.2212 28.4466 11.0206 26.4975 15.1181C28.4803 17.0844 33.9225 15.565 33.7791 18.3287C36.6647 18.4937 37.6603 20.4669 40.3603 20.6181C43.17 21.6494 48.2578 22.4675 49.2112 25.0456C46.4269 26.84 39.9722 21.3331 39.6684 26.3106C40.5122 33.66 40.2928 41.2294 43.5919 48.2281C45.1528 52.4631 48.9328 55.7975 52.35 59.0975C55.6237 62.3287 60.045 64.6044 64.5675 66.5225C68.5247 68.0419 72.7941 69.0525 77.1141 69.685C78.8606 68.5919 81.9572 64.5425 84.6825 66.2475C84.8175 68.1725 79.2656 70.2625 84.4209 70.0562C87.45 69.3137 89.5509 71.9606 92.0484 69.5681C94.3434 71.7887 101.6 68.1519 99.9628 72.6825C97.7522 73.8444 94.5291 73.1431 92.31 74.745C88.6566 73.26 85.7541 76.0719 81.7125 75.7212C77.2237 76.3744 72.6591 76.6425 68.1028 76.6425C60.6356 76.1612 53.0081 75.9619 45.9122 73.8444C41.9128 72.8956 38.0062 71.0394 34.4962 69.1831ZM40.7991 71.4106C44.7056 72.7856 48.5278 74.2362 52.8056 74.6762C59.5978 75.4462 66.6178 76.6287 73.4353 75.5494C70.3472 74.415 67.1578 75.9894 64.0866 74.7381C60.3994 75.3844 56.4422 74.5731 52.6959 74.1744C48.435 72.6275 43.8366 71.5619 39.8456 69.5544C34.8591 68.0694 42.4275 71.4587 43.7691 71.7337C46.8825 73.1775 40.3434 70.9912 39.4153 70.3931C36.8081 69.1969 36.4706 69.4512 39.1537 70.6612C39.6937 70.9156 40.2338 71.1906 40.7991 71.4106ZM33.3656 67.1275C37.1541 68.2687 33.3487 64.955 31.6191 65.1475C30.8512 64.0612 28.6828 63.3737 30.21 62.7894C27.4594 63.5662 27.3244 59.8331 26.0334 60.3625C23.1225 59.6131 24.9028 56.9594 21.435 55.33C21.1228 53.6112 17.9925 52.1262 16.9969 49.5344C16.5581 48.2075 13.4616 44.4056 15.36 47.9462C16.98 51.3562 19.8234 54.2781 22.1944 57.1931C24.0338 59.9706 26.2106 62.8719 29.5519 64.6044C30.6825 65.4981 31.7709 66.8525 33.3656 67.1275ZM22.4559 57.3719C23.1478 58.3756 22.5909 56.9044 22.4559 57.3719ZM37.8966 68.4956C38.7403 68.1931 36.69 68.1106 37.8966 68.4956ZM39.9553 69.1075C39.7444 68.2619 39.0188 69.5819 39.9553 69.1075ZM42.5287 69.9806C43.7522 69.0319 40.6387 69.3825 42.5287 69.9806ZM46.9331 71.9812C47.6841 71.0875 44.5537 71.6444 46.9331 71.9812ZM38.4703 67.1756C40.3687 66.1719 36.015 67.1619 38.4703 67.1756ZM40.4025 67.9594C40.3434 67.43 39.7106 68.1931 40.4025 67.9594ZM50.0466 72.8612C51.5991 73.6587 59.1 74.6075 54.4003 73.1912C53.6156 73.3287 45.6844 71.3625 50.0466 72.8612ZM34.7325 63.1469C34.5806 62.6175 32.3278 62.5625 34.7325 63.1469ZM39.2213 65.2781C40.3941 64.6181 36.7997 64.7694 39.2213 65.2781ZM43.0012 67.1687C44.6719 66.6531 40.2759 66.6531 43.0012 67.1687ZM32.9016 61.5244C34.7241 62.6587 40.2422 61.6687 35.6859 60.8437C33.6187 59.9431 28.9444 59.3312 32.1253 61.3869L32.9016 61.5244ZM45.5578 67.8219C46.3172 66.77 42.3769 67.2169 45.5578 67.8219ZM41.7103 65.3262C46.1569 66.3506 37.9725 63.03 40.6134 64.9481L41.2041 65.1681L41.7103 65.3262ZM49.4222 68.9562C53.6325 68.9906 45.6169 68.4887 49.4222 68.9562ZM31.2816 59.5375C31.1213 58.8981 30.2438 59.5925 31.2816 59.5375ZM56.5434 72.215C56.6616 71.06 55.1766 73.0744 56.5434 72.215ZM38.4703 63.1262C38.2172 62.5212 37.1541 63.0987 38.4703 63.1262ZM31.6866 59.1387C34.0997 59.0219 28.3706 58.2725 31.6866 59.1387ZM23.6372 54.9037C23.3334 53.955 21.0047 53.2056 23.6372 54.9037ZM44.7562 65.8212C44.5453 65.9106 44.3175 65.4087 44.7562 65.8212ZM57.9019 72.3937C57.8597 71.7681 57.1847 72.6344 57.9019 72.3937ZM43.5919 64.845C43.8281 64.0337 41.5331 64.5975 43.5919 64.845ZM33.8044 59.785C35.6016 59.6269 30.9187 58.795 33.8044 59.785ZM50.3672 68.1725C53.1684 67.265 47.6334 67.7325 50.3672 68.1725ZM41.7525 63.4081C44.9841 63.745 37.905 61.6137 41.0437 63.2156L41.7525 63.4081ZM52.9828 69.0387C56.0034 67.5675 55.0078 72.4831 58.1044 69.4512C61.1587 67.6362 55.4634 71.6994 59.2266 69.7744C61.9519 68.2894 65.9681 70.4756 68.5078 71.1906C70.3303 71.115 72.1106 72.4762 73.9837 71.6512C77.5866 70.8606 66.93 70.4756 69.7228 69.0731C66.4238 69.8569 63.9853 68.1381 62.3653 66.4194C58.6612 65.725 54.3834 64.185 52.5356 61.5106C51.7847 60.5069 53.6241 61.655 51.8859 60.0119C49.6584 58.3962 48.5447 56.5606 47.0512 54.5944C45.2625 53.8175 45.0516 51.5281 44.8744 54.5187C44.8913 52.635 42.7144 51.3631 42.1828 51.8925C42.1744 50.0775 44.5116 50.985 42.8747 49.6444C42.5203 47.7606 41.3644 45.8012 41.0184 43.6769C40.4784 42.6525 40.9425 40.4594 39.1706 42.7762C38.5294 45.2306 38.9597 39.765 39.9637 41.5662C41.28 39.7306 39.4912 39.9437 39.4153 40.1981C40.2759 38.6444 39.9553 36.4444 39.1875 37.2831C39.6431 35.64 39.9131 31.2331 38.5041 32.0169C39.3562 30.2981 40.1241 24.1519 36.42 26.4962C34.9181 26.5169 32.3278 26.9362 31.0959 27.4381C34.9434 29.1637 30.7078 28.0637 29.1384 27.7887C28.9359 29.3906 27.3834 28.6962 25.4428 28.71C28.5394 29.0194 23.9325 31.2881 22.1606 30.4081C19.8487 31.3087 24.1519 33.55 22.2028 34.2444C22.4391 35.2894 18.6675 33.8662 18.9628 36.2794C16.7269 35.5094 18.6591 39.1394 19.7728 37.9156C23.5781 38.7544 22.4559 40.6725 22.5488 42.4875C21.9244 43.5462 19.4859 39.9987 22.0087 40.1637C20.0175 37.5306 19.8066 39.215 18.1612 40.4319C17.7816 40.5212 22.3716 42.1712 19.4859 42.9894C22.0256 43.3125 22.1016 45.1206 22.6163 46.2619C24.1434 47.5544 23.8312 44.8319 25.6537 46.3856C24.4978 44.9969 19.5366 42.4806 23.5275 43.285C23.5022 41.8894 22.8019 40.7619 24.0338 40.7894C25.2488 39.0019 22.7597 45.2031 25.4934 42.9275C26.2528 42.6594 26.4384 41.14 27.7969 43.0719C29.7713 44.6531 28.5141 45.8012 25.7213 44.3506C26.2191 45.7325 29.4506 46.2206 28.8431 48.3794C29.4844 50.2769 30.3872 49.5756 31.1719 49.4656C31.7878 51.3081 32.1337 49.9537 32.1675 49.0737C34.9856 49.5687 34.3275 50.9231 35.205 51.8719C37.1456 52.5869 32.4291 47.0319 35.7619 50.2012C39.2719 52.7794 37.0781 53.8587 33.9309 53.4462C35.9222 53.3156 36.5634 55.6394 39.0525 55.5569C41.3222 56.4369 42.8663 59.8194 38.9513 58.41C37.5928 57.4131 32.7834 56.1825 36.7153 58.08C40.3434 59.4481 43.2206 60.2662 46.7222 61.985C49.2197 63.4425 50.3081 65.1062 51.2531 65.4362C49.1522 66.2544 44.9166 64.7831 48.0637 64.3294C46.0978 64.0406 43.8956 63.2294 45.7772 65.2231C47.3719 66.3094 51.4387 66.1994 52.1728 66.3162C51.5569 67.4231 50.4937 67.5125 52.1981 67.595C50.2997 68.4337 52.8056 68.5644 52.9828 69.0387ZM49.1016 60.1012C47.9456 59.1181 47.6503 57.2756 48.8991 58.8775C49.5319 59.0837 50.9494 61.8887 49.1016 60.1012ZM61.7494 66.6462C62.4666 66.605 61.7662 67.0931 61.7494 66.6462ZM47.2791 57.6881C47.6925 58.8362 47.2284 56.1962 47.2791 57.6881ZM46.0219 56.3062C47.8528 56.9594 44.5622 54.0237 46.0219 56.3062ZM30.7838 47.74C31.6359 47.5544 31.2056 48.9294 30.7838 47.74ZM42.9084 53.0956C43.5244 54.4431 43.4316 51.4937 42.9084 53.0956ZM34.3444 48.2419C35.61 49.0737 33.7453 47.355 34.3444 48.2419ZM41.6934 50.16C40.3181 47.6506 42.6722 48.785 41.9972 50.5725L41.6934 50.16ZM29.0203 43.2781C28.4044 42.4531 27.3919 40.0331 27.7125 39.2975C28.0078 40.5006 30.8512 44.4744 29.1047 40.9406C27.1809 37.9844 31.4081 41.9031 31.8469 42.6387C32.0494 43.3744 30.6572 42.4394 31.6022 44.1581C29.8809 42.1987 30.5897 45.2444 29.0203 43.2781ZM25.1053 41.0781C25.9997 42.3912 25.2656 39.16 25.1053 41.0781ZM26.8603 41.5731C28.2862 43.5875 27.7041 40.1225 26.8603 41.5731ZM22.6247 38.8987C21.165 37.7162 20.1103 36.63 22.6922 38.1631C23.6878 38.1975 20.4816 35.6881 22.9284 37.3656C25.5103 37.7506 24.2025 40.81 22.6247 38.8987ZM24.8522 38.8506C25.6959 38.17 25.2994 39.5244 24.8522 38.8506ZM26.2191 39.2081C27.78 40.0331 24.9366 37.2487 26.2191 39.2081ZM23.5022 37.0906C19.2666 34.0175 28.8262 38.6994 24.1941 37.6612L23.5022 37.0906ZM35.6437 42.8381C33.8044 41.9444 35.1544 36.5269 35.7787 40.2325C37.5591 39.765 35.6775 42.1437 37.0106 42.1231C36.8081 43.6219 36.2091 44.165 35.6437 42.8381ZM40.1409 45.0037C40.5206 46.1175 40.3181 43.3675 40.1409 45.0037ZM39.3562 44.3712C39.5587 43.6769 39.3816 45.1962 39.3562 44.3712ZM24.3291 36.08C21.6037 33.0206 32.2434 39.1806 26.0756 36.8569C25.4259 36.7125 24.6497 36.6644 24.3291 36.08ZM32.9859 39.8131C33.5597 40.2394 32.7244 37.235 32.9859 39.8131ZM39.5503 43.2506C40.0566 41.7794 39.5925 44.22 39.5503 43.2506ZM24.7509 34.9112C26.3709 34.6294 31.4588 37.2281 26.7844 35.6537C26.2612 35.1794 25.1559 35.3925 24.7509 34.9112ZM38.6475 40.5556C38.8162 37.9156 39.6178 38.9812 38.6559 40.9337L38.6475 40.5556ZM25.9491 33.99C26.6072 33.1994 24.1941 30.4287 26.295 32.9931C27.2063 33.5775 28.9191 33.9762 27.4003 34.2237C29.7966 35.9425 26.8266 34.6912 25.9491 33.99ZM37.9641 39.7306C38.4197 36.7262 38.3606 41.4906 37.9641 39.7306ZM24.5738 31.2194C25.08 31.0406 24.8438 31.7625 24.5738 31.2194ZM27.7041 32.7387C29.1975 34.2719 28.5141 31.3569 27.7041 32.7387ZM36.5381 36.74C36.7069 37.51 36.5381 36.2106 36.5381 36.74ZM36.0319 35.8187C37.1709 37.125 34.8084 33.3506 36.0319 35.8187ZM35.2809 34.2031C35.9812 35.4819 35.07 33.1856 35.2809 34.2031ZM36.5044 32.5806C35.6606 31.3706 37.5675 27.2525 37.7784 29.81C36.8925 31.7969 37.5253 32.9106 38.1412 30.2431C39.2887 28.1394 37.8966 34.3819 36.5044 32.5806ZM37.7616 26.455C38.1328 26.0906 37.8459 26.9019 37.7616 26.455ZM35.6606 60.225C35.7197 60.4519 35.1628 59.8675 35.6606 60.225ZM39.9891 62.0125C42.4022 62.5212 42.3853 61.71 40.2084 61.4694C39.0356 60.5825 35.34 59.6406 38.6475 61.3594C38.8753 61.8062 39.5672 61.7925 39.9891 62.0125ZM31.4334 57.3787C32.7581 58.19 36.4369 59.6612 33.3234 57.6881C34.3697 56.6981 31.3153 56.1687 32.3278 55.5019C29.7459 54.2162 30.2944 54.3331 32.1 54.3744C29.0034 53.2469 32.5472 53.3294 32.3784 52.7519C31.1803 52.5594 26.4469 51.0331 29.2313 52.8756C26.3963 51.7 28.5563 53.3156 27.6956 53.1437C24.7931 52.4975 30.2775 54.945 27.24 54.3331C28.9022 55.4056 31.7119 57.0831 27.9403 55.4675C27.4594 56.0519 30.6488 56.9387 31.4334 57.3787ZM35.9644 59.5031C41.4741 60.9469 33.2644 57.7294 35.9644 59.5031ZM59.1675 70.95C59.235 70.0562 58.4081 71.7131 59.1675 70.95ZM61.5469 71.7681C62.8209 70.7644 61.5975 73.37 63.6563 71.5206C63.6816 70.2006 63.5972 69.4169 61.2937 71.0256C60.6609 71.3144 60.3741 72.5312 61.5469 71.7681ZM23.7047 52.4012C23.3081 51.15 20.9625 51.1569 23.7047 52.4012ZM26.2444 53.7625C25.2994 52.4837 22.8694 52.6075 26.2444 53.7625ZM40.7316 60.8781C42.1491 61.9025 47.2284 61.6275 42.4444 61.0019C41.7441 60.1494 37.9556 60.3556 40.7316 60.8781ZM60.6441 70.895C62.8125 69.41 58.5347 71.5619 60.6441 70.895ZM65.1666 73.4319C65.1834 72.9575 64.23 73.6381 65.1666 73.4319ZM65.175 72.765C67.5881 70.6819 62.8378 72.8887 65.175 72.765ZM17.4356 48.1319C15.3853 45.7462 16.1616 44.6737 14.1787 42.7212C13.7991 41.2294 10.7784 37.8469 12.6178 41.4287C14.2969 43.5256 14.7947 46.7706 17.4356 48.1319ZM64.4156 72.105C68.8538 69.7675 62.6016 71.0875 64.4156 72.105ZM67.7991 73.1844C70.0266 71.6306 66.3984 72.8612 67.7991 73.1844ZM22.9453 49.7612C23.5866 48.9912 21.3084 49.665 22.9453 49.7612ZM67.0988 72.4419C69.2503 71.3144 66.6009 71.4862 66.7106 72.545L67.0988 72.4419ZM37.9219 57.4612C37.8459 56.6981 36.7828 57.5231 37.9219 57.4612ZM39.7275 58.3069C39.1453 57.3581 38.8416 58.4512 39.7275 58.3069ZM70.5497 73.205C73.3087 71.5825 68.8791 72.8956 69.9759 73.5144L70.5497 73.205ZM69.4866 72.7925C71.7394 71.2594 67.1241 73.4731 69.4866 72.7925ZM74.8781 75.7144C76.3884 74.8962 73.0472 75.4531 74.8781 75.7144ZM24.3291 49.2044C26.3456 49.5756 32.3953 53.2537 28.8263 49.4587C26.9953 49.0187 28.0922 45.375 26.2275 46.0212C27.4762 47.7262 27.2569 48.4481 24.6244 47.3756C21.3253 46.0625 22.7681 48.0219 23.4178 48.565C22.5403 48.7369 24.5906 49.1906 24.3291 49.2044ZM15.1322 43.285C15.495 42.0681 11.7994 36.5819 13.3856 40.535C13.9594 41.3669 13.9003 42.9344 15.1322 43.285ZM32.0156 51.7687C31.965 51.6656 30.9778 51.0606 32.0156 51.7687ZM34.5722 52.2569C34.5722 50.9644 31.7456 51.7275 34.5722 52.2569ZM56.7628 63.6487C56.3409 62.7687 55.0922 63.635 56.7628 63.6487ZM57.8259 64.2881C57.6741 63.7931 57.2184 64.3844 57.8259 64.2881ZM66.6262 68.7981C67.47 68.2894 65.5716 68.7362 66.6262 68.7981ZM19.7222 44.2406C22.1437 43.4775 17.1319 43.6975 19.7222 44.2406ZM54.8137 62.2531C54.78 60.9744 53.2697 62.5694 54.8137 62.2531ZM18.7687 42.4256C20.3212 41.9994 17.3259 42.1437 18.7687 42.4256ZM23.2744 44.2062C23.2491 43.7869 22.8019 44.3644 23.2744 44.2062ZM78.3038 71.6994C80.3034 71.3694 84.8597 72.5312 85.5937 71.2662C83.1637 71.2181 77.1984 69.8706 76.92 71.5825L77.4516 71.6512L78.3038 71.6994ZM24.7088 44.5019C24.7509 43.2094 23.4769 44.4537 24.7088 44.5019ZM12.8541 37.7987C12.3141 35.3375 10.8038 37.4275 12.8541 37.7987ZM15.6806 38.3762C15.7144 37.5856 13.0903 37.6681 15.6806 38.3762ZM17.2922 39.0225C16.9294 39.4144 16.8281 38.72 17.2922 39.0225ZM27.4678 44.3369C27.9487 43.9794 26.3287 44.0756 27.4678 44.3369ZM16.2206 37.565C15.9422 35.7019 12.9469 37.29 16.2206 37.565ZM10.4241 34.4987C10.3397 33.6394 9.85875 34.8219 10.4241 34.4987ZM11.2847 33.9694C11.1412 32.9519 10.5422 34.1 11.2847 33.9694ZM16.0519 36.2862C18.0684 35.64 12.3816 34.9525 15.6384 36.1625L16.0519 36.2862ZM79.8309 68.3856C81.1219 67.4231 78.1941 68.09 79.8309 68.3856ZM87.5344 71.6444C88.0491 70.4 86.235 71.8025 87.5344 71.6444ZM16.5328 34.2512C16.7522 33.0481 14.9381 34.4919 16.5328 34.2512ZM9.7575 30.5525C9.39469 28.8544 9.44531 25.8637 12.93 26.8744C8.28094 27.6306 16.1531 31.5837 15.1575 28.4625C17.115 28.5381 18.9797 27.5206 17.9587 29.0675C21.8147 28.7237 24.4809 26.0012 28.2019 26.3794C31.1044 26.0631 34.2684 25.8294 37.3903 24.8806C39.9553 24.7294 42.4275 22.4744 41.0269 21.1406C37.5253 20.9 33.855 21.2575 29.9906 21.8831C25.7044 22.6119 21.8062 23.9869 17.4778 24.585C13.2591 25.0456 18.3216 25.8569 17.115 26.0356C14.9128 26.6544 19.7391 27.0806 16.8281 27.7337C15.0309 27.4519 13.1578 26.95 13.9256 25.41C9.88406 25.8362 6.33187 27.2044 9.52969 30.5525H9.7575ZM19.4944 26.51C20.4394 23.6637 24.5653 28.8475 21.0469 26.8881C20.625 26.6269 19.9331 26.4206 19.4944 26.51ZM19.68 25.1281C21.0469 24.3031 20.4056 25.5956 19.68 25.1281ZM21.4181 25.1556C21.5447 23.8494 25.3922 25.85 22.0509 25.6231L21.4181 25.1556ZM23.7891 24.3719C24.6581 23.5469 24.0422 25.1075 23.7891 24.3719ZM24.3966 24.0419C25.8394 22.6256 32.5725 23.1412 27.645 23.9044C26.3287 23.0931 25.3163 24.3856 24.3966 24.0419ZM33.1884 22.9419C37.5591 24.31 32.9691 19.0781 33.1884 22.9419ZM35.6859 22.9281C36.5972 20.9825 39.2297 22.1444 36.1078 22.5362C36.1753 22.7425 36.015 23.54 35.6859 22.9281ZM15.5541 33.2544C18.2794 31.8931 12.66 32.0719 15.5541 33.2544ZM17.5706 33.7081C18.5241 32.8831 15.495 33.3712 17.5706 33.7081ZM11.6306 30.2775C13.1916 29.3012 9.79125 29.9062 11.6306 30.2775ZM92.0822 71.2869C92.1244 70.1525 90.8925 71.7956 92.0822 71.2869ZM83.9062 66.7425C84.1425 65.4362 82.86 66.8525 83.9062 66.7425ZM94.335 71.7269C96.5119 71.7337 100.933 71.1769 96.1912 71.1769C95.4487 71.2662 91.8628 71.2525 94.335 71.7269ZM19.3425 32.9106C21.1059 32.8144 22.1016 31.3294 18.9966 31.4119C14.1956 31.0062 23.2322 32.7525 18.3806 32.2506C17.7309 32.6012 19.3003 33.0069 19.3425 32.9106ZM20.895 33.55C20.7094 32.6287 20.3466 34.0381 20.895 33.55ZM22.7344 29.5487C23.4937 28.7787 21.6712 29.3425 22.7344 29.5487ZM16.8703 21.5737C20.0175 20.7006 24.3122 19.7244 25.7972 22C24.2869 20.5219 25.1897 19.0575 26.6156 21.23C28.6322 23.4231 29.6447 20.2331 28.3284 19.4975C29.8219 21.01 31.5262 21.725 29.3325 19.5937C31.7203 17.2562 24.5569 19.9031 22.9284 19.8756C22.1522 20.1575 14.8453 21.3881 16.8703 21.5737ZM18.7181 18.7C20.5153 17.6 24.9197 19.36 22.0931 17.6069C21.8147 17.4006 15.8916 18.9337 18.7181 18.7ZM25.2572 18.92C27.3581 18.9612 24.3544 16.6237 26.8519 17.6825C26.4384 16.5894 23.9409 16.3831 22.7175 15.95C22.0256 16.9469 24.1181 18.9337 25.2572 18.92ZM19.8656 14.08C20.5912 13.2825 18.5916 14.4925 19.8656 14.08ZM22.5319 14.6025C25.9153 14.2381 21.6713 13.42 21.8484 14.575L22.5319 14.6025ZM17.5453 11.4262C15.1659 8.88936 22.0256 11.8525 19.6041 9.19873C17.5706 7.87873 15.6131 10.6837 17.5453 11.4262ZM48.0975 24.8325C49.1859 23.2581 43.5919 22.7081 47.3634 24.2756C47.7178 24.3719 47.6334 24.9425 48.0975 24.8325Z" fill="black"/>
</svg>
